{
  "accessors": [
    {
      "bufferView": 2,
      "componentType": 5126,
      "count": 65532,
      "max": [
        13.309808731079102,
        16.40621566772461,
        0.9583349823951721
      ],
      "min": [
        -15.589192390441895,
        -0.2934570014476776,
        -7.937994003295898
      ],
      "type": "VEC3"
    },
    {
      "bufferView": 2,
      "byteOffset": 786384,
      "componentType": 5126,
      "count": 65532,
      "max": [
        0.9999642372131348,
        0.9039919972419739,
        0.9999967813491821
      ],
      "min": [
        -0.9999306201934814,
        -0.9999977350234985,
        -0.9999884963035583
      ],
      "type": "VEC3"
    },
    {
      "bufferView": 1,
      "componentType": 5126,
      "count": 65532,
      "max": [
        0.9897869825363159,
        0.9995629787445068
      ],
      "min": [
        0.0004309999931138009,
        0.016718000173568726
      ],
      "type": "VEC2"
    },
    {
      "bufferView": 0,
      "componentType": 5125,
      "count": 331929,
      "type": "SCALAR"
    },
    {
      "bufferView": 2,
      "byteOffset": 1572768,
      "componentType": 5126,
      "count": 58544,
      "max": [
        13.332426071166992,
        16.40637969970703,
        0.9583349823951721
      ],
      "min": [
        -15.57548999786377,
        -0.2571769952774048,
        -7.9489521980285645
      ],
      "type": "VEC3"
    },
    {
      "bufferView": 2,
      "byteOffset": 2275296,
      "componentType": 5126,
      "count": 58544,
      "max": [
        0.9999850988388062,
        0.9849377870559692,
        0.9999967813491821
      ],
      "min": [
        -0.9999306201934814,
        -0.9999918937683105,
        -0.9999914765357971
      ],
      "type": "VEC3"
    },
    {
      "bufferView": 1,
      "byteOffset": 524256,
      "componentType": 5126,
      "count": 58544,
      "max": [
        0.9899579882621765,
        0.9995890259742737
      ],
      "min": [
        0.0004090000002179295,
        0.00430699996650219
      ],
      "type": "VEC2"
    },
    {
      "bufferView": 0,
      "byteOffset": 1327716,
      "componentType": 5125,
      "count": 230562,
      "type": "SCALAR"
    }
  ],
  "asset": {
    "extras": {
      "author": "Sofia Nasopoulou (https://sketchfab.com/sofianasopoulou)",
      "license": "CC-BY-4.0 (http://creativecommons.org/licenses/by/4.0/)",
      "source": "https://sketchfab.com/3d-models/egyptian-style-sphinx-statue-9003a8376d7444bfb435391333116ef7",
      "title": "Egyptian-style sphinx statue"
    },
    "generator": "Sketchfab-15.8.0",
    "version": "2.0"
  },
  "bufferViews": [
    {
      "buffer": 0,
      "byteLength": 2249964,
      "name": "floatBufferViews",
      "target": 34963
    },
    {
      "buffer": 0,
      "byteLength": 992608,
      "byteOffset": 2249964,
      "byteStride": 8,
      "name": "floatBufferViews",
      "target": 34962
    },
    {
      "buffer": 0,
      "byteLength": 2977824,
      "byteOffset": 3242572,
      "byteStride": 12,
      "name": "floatBufferViews",
      "target": 34962
    }
  ],
  "buffers": [
    {
      "byteLength": 6220396,
      "uri": "scene.bin"
    }
  ],
  "extensionsUsed": [
    "KHR_materials_specular"
  ],
  "images": [
    {
      "uri": "textures/Textured_mesh_1_baseColor.jpeg"
    }
  ],
  "materials": [
    {
      "doubleSided": true,
      "extensions": {
        "KHR_materials_specular": {
          "specularColorFactor": [
            1.0,
            1.0,
            1.0
          ],
          "specularFactor": 0.14544856432982628
        }
      },
      "name": "Textured_mesh_1",
      "pbrMetallicRoughness": {
        "baseColorTexture": {
          "index": 0
        },
        "metallicFactor": 0.0,
        "roughnessFactor": 0.7770415755102371
      }
    }
  ],
  "meshes": [
    {
      "name": "Object_0",
      "primitives": [
        {
          "attributes": {
            "NORMAL": 1,
            "POSITION": 0,
            "TEXCOORD_0": 2
          },
          "indices": 3,
          "material": 0,
          "mode": 4
        }
      ]
    },
    {
      "name": "Object_1",
      "primitives": [
        {
          "attributes": {
            "NORMAL": 5,
            "POSITION": 4,
            "TEXCOORD_0": 6
          },
          "indices": 7,
          "material": 0,
          "mode": 4
        }
      ]
    }
  ],
  "nodes": [
    {
      "children": [
        1
      ],
      "matrix": [
        0.0,
        4.440892098500626e-16,
        -1.0,
        0.0,
        2.220446049250313e-16,
        -1.0,
        -6.661338147750939e-16,
        0.0,
        -1.0,
        -4.930380657631324e-32,
        2.220446049250313e-16,
        0.0,
        0.0,
        0.0,
        0.0,
        1.0
      ],
      "name": "Sketchfab_model"
    },
    {
      "children": [
        2,
        3
      ],
      "name": "Textured_mesh_1.obj.cleaner.materialmerger.gles"
    },
    {
      "mesh": 0,
      "name": "Object_2"
    },
    {
      "mesh": 1,
      "name": "Object_3"
    }
  ],
  "samplers": [
    {
      "magFilter": 9729,
      "minFilter": 9987,
      "wrapS": 10497,
      "wrapT": 10497
    }
  ],
  "scene": 0,
  "scenes": [
    {
      "name": "Sketchfab_Scene",
      "nodes": [
        0
      ]
    }
  ],
  "textures": [
    {
      "sampler": 0,
      "source": 0
    }
  ]
}
